<svg id="SvgjsSvg1000" xmlns="http://www.w3.org/2000/svg" version="1.1" xmlns:xlink="http://www.w3.org/1999/xlink" xmlns:svgjs="http://svgjs.com/svgjs" width="25" height="23" viewBox="0 0 25 23"><title>Shape 886 copy 4</title><desc>Created with Avocode.</desc><defs id="SvgjsDefs1001"></defs><path id="SvgjsPath1007" d="M1523.56 74.0006C1526.6399999999999 74.0006 1529.1299999999999 76.4003 1529.1299999999999 79.3602C1529.1299999999999 80.87815 1528.47517 82.24872 1527.4217399999998 83.22387L1531.0786699999999 88.82376000000001C1531.5911099999998 88.58701 1532.1648599999999 88.45439 1532.77 88.45439C1533.58759 88.45439 1534.34787 88.69646 1534.97708 89.11038L1538.8141699999999 85.55939000000001C1538.5225099999998 85.18554 1538.35 84.72099 1538.35 84.21759C1538.35 82.98159 1539.3899999999999 81.97969 1540.6799999999998 81.97969C1541.9599999999998 81.97969 1542.9999999999998 82.98159000000001 1542.9999999999998 84.21759C1542.9999999999998 85.45359 1541.9599999999998 86.45539 1540.6799999999998 86.45539C1540.1769799999997 86.45539 1539.7119799999998 86.30306999999999 1539.3318299999999 86.04392999999999L1535.8724699999998 89.92308999999999C1536.3847499999997 90.56067999999999 1536.6900099999998 91.36025 1536.6900099999998 92.22828999999999C1536.6900099999998 94.31239 1534.9300099999998 96.00178999999999 1532.7700099999997 96.00178999999999C1530.6100099999996 96.00178999999999 1528.8500099999997 94.31238999999998 1528.8500099999997 92.22828999999999C1528.8500099999997 91.15225999999998 1529.3190899999997 90.18141999999999 1530.0701099999997 89.49394999999998L1525.6767099999997 84.31984999999999C1525.0243599999997 84.57763999999999 1524.3096599999997 84.71978999999999 1523.5600099999997 84.71978999999999C1520.4900099999998 84.71978999999999 1518.0000099999997 82.32018999999998 1518.0000099999997 79.36018999999999C1518.0000099999997 76.40028999999998 1520.4900099999998 74.00058999999999 1523.5600099999997 74.00058999999999Z " fill="#bfbfbf" fill-opacity="1" transform="matrix(1,0,0,1,-1518,-74)"></path><path id="SvgjsPath1008" d="M1523.56 74.0006C1526.6399999999999 74.0006 1529.1299999999999 76.4003 1529.1299999999999 79.3602C1529.1299999999999 80.87815 1528.47517 82.24872 1527.4217399999998 83.22387L1531.0786699999999 88.82376000000001C1531.5911099999998 88.58701 1532.1648599999999 88.45439 1532.77 88.45439C1533.58759 88.45439 1534.34787 88.69646 1534.97708 89.11038L1538.8141699999999 85.55939000000001C1538.5225099999998 85.18554 1538.35 84.72099 1538.35 84.21759C1538.35 82.98159 1539.3899999999999 81.97969 1540.6799999999998 81.97969C1541.9599999999998 81.97969 1542.9999999999998 82.98159000000001 1542.9999999999998 84.21759C1542.9999999999998 85.45359 1541.9599999999998 86.45539 1540.6799999999998 86.45539C1540.1769799999997 86.45539 1539.7119799999998 86.30306999999999 1539.3318299999999 86.04392999999999L1535.8724699999998 89.92308999999999C1536.3847499999997 90.56067999999999 1536.6900099999998 91.36025 1536.6900099999998 92.22828999999999C1536.6900099999998 94.31239 1534.9300099999998 96.00178999999999 1532.7700099999997 96.00178999999999C1530.6100099999996 96.00178999999999 1528.8500099999997 94.31238999999998 1528.8500099999997 92.22828999999999C1528.8500099999997 91.15225999999998 1529.3190899999997 90.18141999999999 1530.0701099999997 89.49394999999998L1525.6767099999997 84.31984999999999C1525.0243599999997 84.57763999999999 1524.3096599999997 84.71978999999999 1523.5600099999997 84.71978999999999C1520.4900099999998 84.71978999999999 1518.0000099999997 82.32018999999998 1518.0000099999997 79.36018999999999C1518.0000099999997 76.40028999999998 1520.4900099999998 74.00058999999999 1523.5600099999997 74.00058999999999Z " fill="#ffffff" fill-opacity="1" transform="matrix(1,0,0,1,-1518,-74)"></path></svg>